<svg xmlns="http://www.w3.org/2000/svg" viewBox="0 0 512 512"><path d="M116.334 419.416a10.185 10.185 0 0 0-10.186 10.184 13.617 13.617 0 0 1-13.6 13.6c-18.007-.645-18-26.566 0-27.2a10.185 10.185 0 0 0 10.185-10.186v-30.062c-.457-13.467-19.9-13.5-20.371 0v21.439c-36.5 11.967-28.7 65.743 10.186 66.384a34.012 34.012 0 0 0 33.971-33.975 10.185 10.185 0 0 0-10.185-10.184z" style="fill:#ffb14a"/><path style="fill:#a3bed8" d="M81.003 233.138h23.086v90.645H81.003z"/><path d="M119.618 336.391A13.656 13.656 0 0 0 106 323.782H79.09a13.656 13.656 0 0 0-13.616 12.609L62 381.572h61.1z" style="fill:#ff7b69"/><path style="fill:#7998b2" d="M81.003 233.138h23.087v41.659H81.003z"/><path style="fill:#d85656" d="M179.326 178.259h26.191v28.688h-26.191zM119.39 178.259h26.191v28.688H119.39z"/><path transform="rotate(-52.224 382.493 99.517)" style="fill:#a3bed8" d="M370.953-7.562h23.086v214.159h-23.086z"/><path transform="rotate(-32.385 198 101.835)" style="fill:#a3bed8" d="M78.172 90.292h239.662v23.086H78.172z"/><path d="M407.669 206.947H64.853l18.63-28.688h324.186v-26.191H76.372a13.093 13.093 0 0 0-10.982 5.963L29.751 212.91a13.1 13.1 0 0 0 10.982 20.228h366.936z" style="fill:#ff7b69"/><path d="M484.364 256h-76.695V152.068h57.176a19.519 19.519 0 0 1 19.519 19.519z" style="fill:#ffb14a"/><path style="fill:#ff7b69" d="M255.519 268.831h26.191v193.408h-26.191zM311.051 268.831h26.191v193.408h-26.191z"/><path style="fill:#d85656" d="M281.71 319.449h29.341v26.191H281.71zM281.71 385.43h29.341v26.191H281.71zM239.627 462.239h113.508a14.358 14.358 0 0 1 14.358 14.361v11.83H225.268V476.6a14.358 14.358 0 0 1 14.359-14.361z"/><path d="M287.65 152.068V36.666a13.1 13.1 0 1 1 26.191 0v115.4z" style="fill:#ff7b69"/><path d="M348.833 152.068v116.763H243.928v-78.379a38.385 38.385 0 0 1 38.385-38.384z" style="fill:#ffb14a"/><path d="M307.855 179.042v42.723H269.47v-22.706a20.017 20.017 0 0 1 20.017-20.017z" style="fill:#53737f"/><path d="M490.184 171.588a25.378 25.378 0 0 0-17.617-24.127c-.816-.875-154.711-120.028-155.782-120.775-6.937-11.574-24.411-11.876-31.745-.549-.171-.112-158.166 100.334-158.421 100.411a5.82 5.82 0 1 0 6.235 9.83L281.83 41.891v13.554l-143.167 90.8H76.372a18.844 18.844 0 0 0-15.863 8.613L24.87 209.74a18.915 18.915 0 0 0 15.863 29.218h34.45v79.413a19.585 19.585 0 0 0-15.513 17.575l-3.47 45.179a5.855 5.855 0 0 0 5.8 6.266h14.54v5.773c-39.023 17.425-26.9 75.82 16.006 76.23 35.769 1.457 56.021-52.74 23.788-55.8a16.024 16.024 0 0 0-16.006 16.006 7.792 7.792 0 0 1-7.782 7.783c-10.281-.328-10.283-15.237 0-15.564a16.024 16.024 0 0 0 16-16.006v-18.421h14.542a5.857 5.857 0 0 0 5.8-6.267l-3.476-45.179a19.583 19.583 0 0 0-15.511-17.575v-63.657a5.821 5.821 0 1 0-11.641 0v63.248H86.823v-79h151.286v29.873a5.82 5.82 0 0 0 5.82 5.82h5.77v181.764h-10.073a20.2 20.2 0 0 0-20.179 20.181v11.83a5.821 5.821 0 0 0 5.821 5.821h142.225a5.821 5.821 0 0 0 5.82-5.821V476.6a20.2 20.2 0 0 0-20.179-20.179h-10.072V292.346a5.82 5.82 0 0 0-11.64 0v164.073h-14.551V274.651h31.962a5.82 5.82 0 0 0 5.82-5.82v-29.873h47.2V256a5.82 5.82 0 0 0 5.82 5.82h76.695a5.82 5.82 0 0 0 5.82-5.82zM293.471 36.665c.3-9.606 14.243-9.619 14.55 0v109.583h-14.55zM281.83 69.229v77.031c-.6.006-1.209.016-1.807.047-.3-.173-119.2 0-119.625-.059zM96.911 405.814a4.37 4.37 0 0 1-4.365 4.365c-25.705.91-25.7 37.937 0 38.845a19.445 19.445 0 0 0 19.423-19.424 4.365 4.365 0 1 1 8.73 0 28.185 28.185 0 0 1-28.153 28.154c-32.031-.465-38.9-45.024-8.436-55.013a5.821 5.821 0 0 0 4.07-5.552v-9.8h8.731zm7.178-76.211c4.845-.508 9.255 2.136 9.726 7.235l2.994 38.913H68.283l2.994-38.913a7.872 7.872 0 0 1 7.814-7.235h25zm137.872-157.164H83.483a5.819 5.819 0 0 0-4.881 2.65l-18.63 28.688a5.819 5.819 0 0 0 4.881 8.99h155.093c7.625-.179 7.72-11.435 0-11.641h-8.608v-17.047h27.236c-.9 3.523-.305 38.81-.465 43.239H40.733a7.276 7.276 0 0 1-6.1-11.238l35.64-54.88a7.245 7.245 0 0 1 6.1-3.312c39.432-.051 135.652.037 176.084 0a44.418 44.418 0 0 0-10.496 14.551zm-42.261 11.64v17.047h-14.55v-17.047zm-26.191 0v17.047H151.4v-17.047zm-33.745 0v17.047h-14.55v-17.047zm-26.191 0v17.047h-38l11.071-17.047zm223.672 283.98h15.892a8.549 8.549 0 0 1 8.539 8.539v6.012H231.088v-6.01a8.549 8.549 0 0 1 8.538-8.539h97.616zm-75.9-11.64V274.651h14.551v181.768zm43.891-131.15v14.55h-17.7v-14.55zm-17.7-11.641v-38.977h17.7v38.977zm17.7 37.832v28.149h-17.7V351.46zm0 39.789V405.8h-17.7v-14.551zm0 26.192v38.978h-17.7v-38.978zm37.781-154.43h-93.268v-72.559a32.6 32.6 0 0 1 32.563-32.564c16.292-.009 44.336.007 60.7 0zm58.837-35.693h-47.2v-14.551h47.2zm0-26.192h-47.2v-17.047h47.2zm0-28.687h-47.2v-14.551h47.2zM350.5 146.248a4.2 4.2 0 0 1-1.662 0h-29.176V72.786l82.631 64.042a5.82 5.82 0 1 0 7.131-9.2l-89.762-69.569V43.578l132.473 102.67zm128.044 103.931h-65.055v-92.291h51.355a13.716 13.716 0 0 1 13.7 13.7z" style="fill:#333"/><path d="M307.855 173.222h-18.367a25.867 25.867 0 0 0-25.838 25.837v22.706a5.821 5.821 0 0 0 5.821 5.82h38.384a5.82 5.82 0 0 0 5.82-5.82v-42.723a5.82 5.82 0 0 0-5.82-5.82zm-5.82 42.723h-26.744v-16.886a14.213 14.213 0 0 1 14.2-14.2h12.547zM307.855 237.253h-11.474a5.82 5.82 0 0 0 0 11.64h11.474c7.673-.193 7.678-11.446 0-11.64z" style="fill:#333"/></svg>
