<svg xmlns="http://www.w3.org/2000/svg" viewBox="0 0 511.999 511.999" style="opacity:50%; enable-background:new 0 0 511.999 511.999" xml:space="preserve"><path style="fill:#37508c" d="M67.741 227.977c-25.759 0-48.197 9.706-60.242 24.097 12.045 14.391 34.483 24.097 60.242 24.097s48.197-9.706 60.242-24.097c-12.045-14.391-34.483-24.097-60.242-24.097z"/><path style="fill:#465f96" d="M488.444 251.822H138.535c-4.272 0-7.152-4.609-5.038-8.321 6.807-11.954 10.928-27.189 10.928-43.889 0-25.759-9.706-48.197-24.097-60.242-14.391 12.046-24.097 34.483-24.097 60.242 0 23.548 8.111 44.32 20.497 56.913 2.471 2.512 3.709 5.943 4.043 9.451 6.391 67.235 57.716 123.301 127.742 144.94l40.112 8.278a222.27 222.27 0 0 0 24.1 1.306c99.368 0 181.177-65.786 191.643-150.298 1.205-9.716-6.133-18.38-15.924-18.38z"/><path style="fill:#c7cfe2" d="M414.157 308.052c-21.814 51.21-70.6 91.531-132.122 109.783l6.59 1.36a222.27 222.27 0 0 0 24.1 1.306c83.902 0 155.101-46.977 181.589-112.451l-80.157.002z"/><path style="fill:#afb9d2" d="m457.307 308.05-43.15.001c-21.814 51.21-70.6 91.531-132.122 109.783l6.59 1.36c1.843.201 3.72.3 5.579.455 75.74-6.327 138.586-51 163.103-111.599z"/><path style="fill:#37508c" d="M248.468 404.436v48.194c22.18 0 40.161-17.981 40.161-40.161v-8.032c0-8.872-7.192-16.065-16.065-16.065h-8.032c-8.872-.001-16.064 7.192-16.064 16.064z"/><path style="fill:#5a73a9" d="M160.112 263.871c0 6.654 5.394 12.048 12.048 12.048h331.189c.314-1.913.78-3.783 1.02-5.716 1.203-9.717-6.134-18.381-15.925-18.381H172.161c-6.654 0-12.049 5.395-12.049 12.049z"/><path d="M506.007 252.399a23.452 23.452 0 0 0-17.563-7.916H137.176c9.177-13.104 14.371-30.276 14.371-48.726 0-25.71-10.086-48.939-26.979-62.137a7.501 7.501 0 0 0-9.234 0c-16.894 13.198-26.98 36.427-26.98 62.137 0 10.342 1.639 20.278 4.69 29.326-9.046-3.051-18.977-4.697-29.318-4.697-25.71 0-48.939 10.086-62.136 26.98a7.498 7.498 0 0 0 0 9.234c13.197 16.894 36.426 26.98 62.136 26.98 18.875 0 36.407-5.442 49.62-15.018 7.112 66.222 56.405 123.924 127.623 147.949v36.279a7.5 7.5 0 0 0 7.5 7.5c21.134 0 39.091-13.829 45.318-32.91 6.279.517 12.626.781 18.941.781 49.507 0 97.028-16.007 133.81-45.072 36.763-29.051 59.946-68.756 65.277-111.804.848-6.864-1.268-13.748-5.808-18.886zM119.951 149.632c10.353 10.82 16.597 27.884 16.597 46.126s-6.244 35.306-16.597 46.126c-10.353-10.82-16.597-27.884-16.597-46.126s6.244-35.306 16.597-46.126zM63.725 268.581c-18.243 0-35.306-6.244-46.126-16.597 10.82-10.353 27.884-16.597 46.126-16.597s35.306 6.244 46.126 16.597c-10.82 10.353-27.884 16.597-46.126 16.597zm380.974 47.129c-21.674 36.82-55.601 64.398-97.47 79.958 32.156-19.733 57.46-47.497 71.887-79.958h25.583zm-7.463 55.61c-23.701 18.729-52.257 31.61-82.941 37.742 47.069-17.933 84.705-50.226 107.562-93.353h21.078c-10.384 20.957-25.879 39.949-45.699 55.611zm59.69-101.878c-1.324 10.688-3.877 21.153-7.564 31.268h-96.313a7.5 7.5 0 0 0 0 15h9.464c-21.385 42.715-63.861 75.832-115.814 89.672a7.5 7.5 0 0 0-5.569 7.248c0 15.43-10.754 28.395-25.162 31.792v-47.857a7.5 7.5 0 0 0-15 0v4.058c-65.677-24.016-109.993-79.126-113.316-141.139h360.792a8.331 8.331 0 0 1 6.323 2.849c1.694 1.917 2.481 4.509 2.159 7.109z"/><path d="M361 300.71h-.08c-4.142 0-7.46 3.358-7.46 7.5s3.398 7.5 7.54 7.5a7.5 7.5 0 0 0 0-15zM441.243 187.193a7.5 7.5 0 0 0 7.5-7.5v-8.032c0-17.423-14.174-31.597-31.597-31.597-9.649 0-18.297 4.353-24.097 11.192-5.8-6.839-14.448-11.192-24.097-11.192-17.423 0-31.597 14.174-31.597 31.597v8.032a7.5 7.5 0 0 0 15 0v-8.032c0-9.152 7.445-16.597 16.597-16.597 9.151 0 16.597 7.445 16.597 16.597v48.193c0 4.143 3.358 7.5 7.5 7.5s7.5-3.357 7.5-7.5v-48.193c0-9.152 7.445-16.597 16.597-16.597 9.151 0 16.597 7.445 16.597 16.597v8.032a7.5 7.5 0 0 0 7.5 7.5zM312.726 106.87a7.5 7.5 0 0 0 7.5-7.5c0-18.009 14.652-32.661 32.662-32.661 18.009 0 32.661 14.652 32.661 32.661v24.097a7.5 7.5 0 0 0 15 0V99.37c0-18.009 14.652-32.661 32.662-32.661s32.662 14.652 32.662 32.661c0 4.143 3.358 7.5 7.5 7.5s7.5-3.357 7.5-7.5c0-26.28-21.381-47.661-47.662-47.661-16.856 0-31.685 8.804-40.162 22.046-8.476-13.243-23.305-22.046-40.162-22.046-26.28 0-47.661 21.381-47.661 47.661a7.5 7.5 0 0 0 7.5 7.5z"/></svg>
