<?xml version="1.0" encoding="UTF-8" standalone="no"?>
<!-- Created with Inkscape (http://www.inkscape.org/) -->

<svg
   version="1.1"
   id="svg1"
   width="1600"
   height="900"
   viewBox="0 0 1600 900"
   xmlns="http://www.w3.org/2000/svg"
   xmlns:svg="http://www.w3.org/2000/svg">
  <defs
     id="defs1" />
  <g
     id="g1">
    <path
       id="path5"
       d="m 1488.2133,384.93601 c -3.24,-1.964 -5.36,-5.292 -7.6,-8.348 -6.84,-9.3 -15.6933,-16.888 -24.4667,-24.38533 -6.3066,-5.396 -12.6266,-10.78933 -18.9333,-16.18533 -7.96,-6.80267 -15.9333,-13.61334 -24.4533,-19.688 -9.96,-7.09467 -20.6534,-13.16 -31.8534,-18.06667 -0.7066,-3.49066 0.7334,-6.91466 1.6667,-10.37733 -0.3333,-3.47067 -0.5067,-6.95733 -0.8133,-10.43333 -0.2667,-0.56934 -0.5467,-1.13467 -0.8267,-1.69334 -5.5067,-10.96266 -11.0133,-21.928 -16.5333,-32.89333 -2.5867,-5.16133 -5.1867,-10.38 -6.68,-15.948 -1.4134,-3.01867 -2.6134,-6.13067 -3.16,-9.432 -0.84,-5.10533 -0.6934,-10.248 -0.4934,-15.39867 0.053,-1.148 0.6134,-1.948 1.3734,-2.42 -0.1334,-4.13333 -0.28,-8.26533 -0.4267,-12.4 -10.5333,5.644 -19.6133,10.78134 -29.5933,17.35734 -2.38,1.568 -4.7467,3.18 -7.068,4.84933 -0.304,0.868 -0.692,1.70133 -1.2307,2.47467 -0.7,1.00533 -1.8253,1.60666 -2.98,1.476 -1.0733,1.25733 -2.148,2.512 -3.192,3.79333 -2.2827,2.804 -4.1,5.82 -5.8413,8.97733 -3.6107,6.548 -7.424,13.012 -12.224,18.772 -0.5787,0.69334 -1.488,0.936 -2.3707,0.84667 -0.116,0.28533 -0.236,0.57067 -0.3507,0.856 -4.012,9.94667 -7.3986,20.13333 -10.7826,30.30933 -4.1787,12.56934 -8.3574,25.14 -12.5374,37.70933 -19.024,2.396 -38.6706,5.23467 -57.4853,8.936 -5.6213,1.10534 -11.2267,2.296 -16.824,3.53334 -3.84,1.20266 -7.6693,2.44533 -11.4733,3.76666 -0.96,0.33467 -1.772,0.18 -2.392,-0.244 -3.4587,1.18534 -6.896,2.428 -10.276,3.73867 -8.892,3.45467 -17.824,8.52933 -27.64,8.34133 -0.9974,-0.0173 -1.7347,-0.43066 -2.2227,-1.02933 -1.916,0.62933 -3.8347,1.24667 -5.7427,1.90267 -6.8546,2.35466 -13.676,4.884 -20.7586,6.428 -0.212,0.62 -0.616,1.17466 -1.228,1.54533 -9.5094,5.74267 -20.5374,8.752 -31.3307,10.984 -5.6533,1.16933 -11.3773,2.22133 -17.1347,3.02533 -0.6493,0.18934 -1.2933,0.392 -1.944,0.57867 -10.8413,3.08933 -21.8013,5.74133 -32.7173,8.556 -0.7413,0.19067 -1.396,0.112 -1.9453,-0.132 -7.4387,2.35067 -15.2934,3.16667 -23.0707,3.944 -7.17999,0.71733 -14.35999,1.43467 -21.53999,2.152 0.0707,0.16533 0.14933,0.32667 0.21733,0.49467 0.3,0.73866 0.0493,1.66133 -0.30533,2.33333 -0.37067,0.70133 -1.07733,1.15333 -1.80933,1.39067 -0.728,0.236 -1.684,0.076 -2.332,-0.304 -0.71067,-0.416 -1.056,-1.008 -1.35734,-1.72934 0.056,0.12934 0.112,0.26267 0.168,0.39467 -0.292,-0.676 -0.65066,-1.31467 -1.03733,-1.93467 -1.404,0.14 -2.80667,0.28 -4.21067,0.42 -5.43466,-4.32666 -11.81466,-9.64533 -17.25066,-13.97466 -1.512,-1.20267 -3.06134,-2.428 -4.88534,-3.068 -3.108,-1.09067 -6.52533,-0.33734 -9.73333,0.40933 -0.832,0.19467 -1.66667,0.38 -2.5,0.57067 -0.496,0.99066 -1.55067,1.57733 -2.72533,1.73333 -21.86534,2.90133 -41.43334,15.632 -63.88534,15.43067 -2.13466,-0.0187 -3.09199,-1.84 -2.88933,-3.48 -1.10133,0.18133 -2.20133,0.36933 -3.30266,0.54666 -11.86934,1.908 -22.99867,3.95467 -34.97867,3.30667 -13.22933,-0.71467 -26.45733,-1.42667 -39.68667,-2.14 -11.91333,-0.64267 -23.85733,-1.288 -35.624,-3.25733 -8.904,-1.49067 -17.67466,-3.732 -26.61066,-5.01467 -10.65867,-1.53067 -21.46267,-1.68133 -32.23067,-1.79067 -55.22533,-0.564 -110.46133,-0.11333 -165.67066,1.35334 -25.53467,0.67733 -51.11333,1.31066 -76.656,1.06666 -2.97733,-0.0293 -5.96266,-0.0707 -8.948,-0.15866 -9.888,-2.50267 -19.54933,-5.96934 -29.148,-9.484 -13.78666,-5.048 -28.76666,-11.512 -43.412,-6.38667 -1.184,0.0573 -2.372,0.15733 -3.56533,0.34267 -9.06,1.404 -18.18133,2.868 -27.34,4.32266 -8.38666,2.15867 -16.92133,3.81734 -25.27466,6.16 -1.704,0.47867 -2.956,-0.46266 -3.47467,-1.728 -18.07867,2.65867 -36.18933,4.98934 -54.136,6.44134 -9.61467,0.77866 -19.26,1.03866 -28.91067,1.20533 -0.36933,0.43733 -0.856,0.764 -1.436,0.872 -8.064,1.48667 -16.30933,0.812 -24.38133,2.16 -7.10133,1.18533 -14.296,1.828 -21.44,2.69333 -2.56266,0.30934 -5.104,0.68667 -7.636,1.09467 l 0.007,0.0427 c -0.22267,0.02 -0.44133,0.0427 -0.66267,0.064 -4.19333,0.688 -8.364,1.48533 -12.53866,2.39733 -6.72934,1.46933 -13.17867,3.99067 -19.98534,5.13067 -5.884,0.988 -12.03706,1.54266 -16.9548,5.24666 -1.1844,0.892 -2.97813,0.33334 -3.87346,-0.72533 -1.062,2.15067 -0.31307,5.32533 0.53693,7.66133 1.48707,4.08667 3.4272,7.99734 5.72867,11.68534 0.38026,-0.65334 1.05266,-1.08934 1.75626,-1.316 0.40267,-0.12667 0.80467,-0.14534 1.20734,-0.0547 0.40253,0.0187 0.77813,0.13733 1.12546,0.35867 0.64334,0.376 1.20627,1.08133 1.3912,1.80933 0.36827,1.45333 0.93494,2.848 1.23387,4.32133 0.1448,0.536 0.1448,1.07334 0,1.60934 -0.10107,0.24133 -0.20267,0.48133 -0.30467,0.724 -0.36986,0.69866 -1.07706,1.15333 -1.80946,1.39066 -0.402,0.12534 -0.80467,0.144 -1.20667,0.0547 -0.38293,-0.0187 -0.73907,-0.13467 -1.07147,-0.33467 -4.81613,1.14667 -9.58853,2.484 -14.44893,3.43467 -4.06507,1.12133 -8.13227,2.188 -12.30413,2.636 -0.771869,0.448 -1.516136,0.94 -2.179202,1.54 -2.525467,2.288 -3.7896,5.68933 -4.2484,9.068 -1.412,10.38133 3.895866,20.36666 9.028662,29.5 9.29214,16.53733 18.61294,33.11866 29.7828,48.44933 2.842,3.90133 5.80867,7.70533 8.85534,11.44267 0.64266,-0.14534 1.36,-0.06 2.09466,0.39733 8.78,5.46933 15.244,13.81333 21.796,21.64 1.628,1.944 3.37334,3.81067 4.93734,5.80533 0.75466,0.964 1.42933,1.984 2.09866,3.00667 0.39067,0.044 0.76934,0.17733 1.10534,0.412 8.24533,5.74933 14.85066,13.492 22.152,20.35333 l 0.104,-0.128 c 1.224,-1.22533 3.032,-1.05467 4.27999,0 9.99734,8.44267 19.69734,17.43333 30.57467,24.756 8.764,5.9 17.96533,11.112 26.59733,17.19067 19.88534,12.09466 39.872,24.2 61.30534,33.27066 21.79066,9.22134 44.91199,16.43867 67.18933,24.412 8.38266,3.00134 16.78133,6.00667 25.41866,8.17067 17.88934,4.48133 36.47467,5.27333 54.676,8.24267 27.84533,4.53866 55.15467,14.20399 83.35733,13.48533 26.08934,-0.66534 52.144,0.304 78.24133,0.48 2.98134,0.02 5.96134,0.0373 8.94267,0.0453 0.32533,-0.29333 0.712,-0.512 1.16,-0.59333 8.91333,-1.61734 17.96533,-1.19067 26.94533,-2.096 7.95867,-0.80134 15.90934,-2.37334 23.79334,-3.71067 7.704,-1.30533 15.39333,-2.7 23.05733,-4.22933 7.75733,-1.54933 15.48667,-3.23467 23.17466,-5.09867 1.52534,-0.37066 3.04267,-0.77333 4.56134,-1.164 0.116,-0.91733 0.60133,-1.78266 1.44266,-2.22133 7.39467,-3.856 15.37734,-7.07333 23.74934,-7.82 0.564,-0.052 1.09333,0.12133 1.55066,0.41867 0.97067,-0.728 1.904,-1.49867 2.78934,-2.30934 1.72133,-1.58133 3.94666,-0.66666 4.83466,0.88267 1.272,-0.58133 2.53334,-1.184 3.79867,-1.78 0.26933,0.32 0.58667,0.62267 1.00133,0.88 4.03067,2.49333 8.27334,4.45867 12.628,6.17333 7.05734,4.17067 14.35867,7.844 21.86267,11.00934 5.68933,3.66799 11.56933,6.94399 18.06533,8.95999 5.18534,1.60934 10.56934,2.43867 15.956,3.164 0.57467,-0.452 1.212,-0.82133 1.87867,-1.15066 6.43733,1.264 12.95867,2.176 19.536,2.75466 0.0373,0.356 0.0267,0.70934 -0.0573,1.02934 7.92,0.832 15.85467,1.41866 23.78134,1.42266 8.13333,-2.82933 16.552,-4.7 24.99466,-6.352 3.09067,-0.60533 6.18534,-1.19066 9.28,-1.78133 1.472,-0.968 2.95067,-1.92933 4.44667,-2.86133 4.13733,-2.58133 8.31867,-5.08933 12.512,-7.57867 1.676,-2.64533 3.74,-4.93733 6.27333,-6.82 2.464,-1.82933 5.27334,-2.93866 7.972,-4.348 1.06934,-0.55866 2.15467,-1.14533 3.11334,-1.87866 0.30933,-0.23734 1.22266,-1.17334 1.44533,-1.528 0.596,-0.94667 0.73333,-1.324 1.02267,-2.55067 0.23066,-0.976 0.33066,-1.95867 0.39066,-2.95067 -23.556,-8.27066 -47.208,-16.70666 -69.62933,-27.54 -8.784,-2.35333 -17.39467,-5.34533 -25.73467,-9.31333 -1.48266,-0.70533 -1.85733,-2.82267 -1.08533,-4.14133 0.188,-0.32267 0.42533,-0.57867 0.68667,-0.79067 -0.53467,-0.33067 -1.076,-0.64533 -1.608,-0.98 18.332,-4.39333 36.07733,-10 52.91733,-18.47333 12.30533,-6.192 23.512,-14.432 35.956,-20.344 17.416,-8.27467 37.34667,-12.06667 52.17332,-24.39334 19.2627,-16.01199 45.8774,-23.84533 65.2,-39.78399 5.54,-4.57067 10.4974,-9.81867 16.08,-14.336 8.2014,-6.63867 17.608,-11.592 26.948,-16.5 10.868,-5.71067 19.3747,-18 29.1067,-25.48667 23.9013,-18.38933 47.804,-36.78 71.7067,-55.17066 6.5986,-8.74934 14.076,-16.75467 24.12,-21.544 1.172,-0.55867 2.5226,-0.48534 3.476,0.31066 5.0733,-3.904 10.1493,-7.808 15.2226,-11.712 4.9734,-3.82666 10.0987,-7.732 16.1187,-9.50133 2.9413,-0.86667 5.9653,-1.18 9.0187,-1.16 14.4533,4.66667 28.908,9.332 43.3613,13.99733 1.4853,0.47867 2.7053,0.096 3.556,-0.704 9.7013,5.10534 20.008,8.84134 30.768,11.09467 1.5067,0.44933 3.04,0.79067 4.6267,1.02133 0.1333,0.0467 0.2533,0.1 0.3733,0.148 14.6133,5.556 30.2267,7.84267 45.6933,10.09467 11.7734,1.71333 23.6534,3.43067 35.52,2.65067 21.92,-1.44 42.3867,-11.27467 61.3334,-22.38267 -6.6934,-1.97467 -15.3334,-1.064 -21.3067,-4.67867"
       style="fill:#ffffff;fill-opacity:1;fill-rule:nonzero;stroke:none;stroke-width:0.133333;opacity:0.25" />
    <path
       id="path6"
       d="m 269.14666,623.05601 c -0.044,0.18 -0.0893,0.36 -0.13333,0.53866 0.512,0.0547 1.02266,0.108 1.53466,0.16267 0.016,-0.164 0.032,-0.32667 0.0467,-0.48933 -0.48267,-0.072 -0.964,-0.14134 -1.448,-0.212 z m 442.12266,-86.72933 c 0.0293,-0.172 0.0587,-0.34267 0.0893,-0.51467 -0.48533,-0.04 -0.97067,-0.0813 -1.456,-0.12133 l -0.008,0.29466 c 0.45867,0.11334 0.916,0.22667 1.37467,0.34134 z m -550.03466,-91.712 c -4.836,-3.18934 -10.05466,-6.464 -15.08133,-10.012 -2.65067,-1.87067 -4.93467,-4.25467 -7.45867,-6.31867 -0.564,-0.46266 -1.46266,-0.83733 -2.15733,-0.76666 -4.26333,0.43733 -8.49827,1.21466 -12.768,1.49866 -6.38653,0.42534 -12.33493,1.89467 -17.7672,5.98267 17.59213,10.35866 36.73787,9.984 55.23253,9.616 z m 805.30665,-62.06 c -3.23333,-3.87733 -6.17333,-7.26133 -8.952,-10.772 -2.99067,-3.77867 -6.77333,-4.78933 -11.45867,-4.30133 -13.52533,1.41066 -26.78,4.06666 -39.788,7.996 -7.036,2.12666 -14.06666,4.27333 -21.1,6.40933 27.03467,2.23867 53.97467,2.27733 81.29867,0.668 z m -590.20532,95.884 c -0.58533,-1.03734 -0.86667,-1.948 -1.46667,-2.528 -4.32933,-4.192 -8.39333,-8.748 -13.15333,-12.388 -24.744,-18.924 -53.556,-26.904 -83.98666,-28.476 -25.66134,-1.32534 -51.43334,-0.69334 -77.15467,-0.55334 -11.32533,0.0627 -22.44266,-0.73333 -33.23466,-4.22799 -10.87734,-3.52134 -22.25334,-5.74934 -32.11067,-12.02134 -0.41467,-0.26533 -1.084,-0.13066 -1.84,-0.20133 1.89067,1.92267 3.52133,3.78533 5.36,5.41333 8.80133,7.788 19.32933,12.66667 29.78533,17.71333 5.356,2.584 10.916,4.11467 16.76534,4.46934 14.72133,0.88933 29.44933,1.66666 44.18133,2.35866 17.82933,0.836 35.66533,1.51867 53.496,2.32134 2.55066,0.11466 5.08533,0.52933 7.628,0.80533 0.032,-0.19733 0.0627,-0.39333 0.0947,-0.59067 -1.52933,-0.86933 -3.06,-1.73866 -4.58933,-2.60933 0.104,-0.212 0.208,-0.42267 0.312,-0.63467 6.388,1.76134 11.97867,6.25067 19.32533,5.79867 -2.68533,-1.8 -5.168,-3.46667 -7.652,-5.13333 0.156,-0.25334 0.312,-0.50534 0.468,-0.75867 3.144,1.77333 6.30534,3.51333 9.42667,5.324 4.41467,2.55867 7.236,3.48667 10.136,3.22533 -2.69333,-2.176 -5.37867,-4.34666 -8.064,-6.51733 6.83467,2.508 11.28,9.11067 19.02533,9.59333 0.23067,-0.244 0.46134,-0.488 0.692,-0.73333 -2.21066,-1.94933 -4.42133,-3.90133 -6.63333,-5.85333 4.09333,1.11466 6.64,4.23333 9.58267,6.88 1.27599,1.148 3.10799,1.67866 4.68799,2.488 0.104,-0.21067 0.208,-0.42267 0.312,-0.63334 -2.52533,-2.85466 -5.05199,-5.70933 -7.57733,-8.56133 0.19867,-0.21333 0.39867,-0.428 0.59734,-0.64133 0.808,0.56533 1.684,1.05466 2.41333,1.70666 2.92666,2.62534 5.60533,5.58134 8.772,7.86934 2.576,1.86 5.716,2.944 8.60666,4.37066 0.0867,-0.22533 0.17334,-0.452 0.26,-0.67733 -1.59333,-2.01467 -3.18666,-4.032 -4.008,-5.07067 9.02,5.63867 19.08267,11.932 29.54267,18.47334 z m 391.32532,201.00266 c -4.66933,-1.45067 -8.97333,-2.49867 -13.04266,-4.13333 -4.16534,-1.67334 -8.14667,-3.836 -12.11334,-5.964 -1.45866,-0.78267 -2.43066,-0.748 -3.88666,0.10133 -3.452,2.012 -6.91733,4.292 -10.68933,5.416 -16.188,4.82 -32.38134,9.69733 -48.77867,13.72 -17.21467,4.22133 -34.76933,6.75067 -52.504,7.78 -18.39067,1.06667 -36.77466,2.89867 -55.172,3.04267 -27.336,0.21333 -54.49333,-2.53867 -81.52,-6.97867 -30.36266,-4.98667 -60.22266,-11.99333 -89.78266,-20.384 -19.02533,-5.40133 -38,-10.984 -56.96533,-16.59333 -4.62267,-1.36667 -9.21734,-2.924 -13.65867,-4.79067 -13.9,-5.83867 -27.78533,-11.72133 -41.536,-17.89733 -5.29333,-2.37734 -10.20666,-5.59734 -15.30666,-8.41067 -0.55734,-0.30933 -1.20134,-0.46267 -1.804,-0.68933 0.54666,1.15733 1.35466,1.76533 2.22,2.27733 8.74133,5.172 17.42266,10.45333 26.26266,15.45067 6.896,3.9 13.776,7.952 21.04,11.05466 31.944,13.64667 65.04267,24.004 98.63067,32.63334 18.55333,4.76533 37.456,8.31466 56.33733,11.63466 14.41333,2.536 28.99333,4.536 43.584,5.556 26.04533,1.82 52.14666,2.904 78.23866,3.95067 21.90267,0.87866 43.75067,-0.312 65.48267,-3.252 21.67866,-2.93334 43.00933,-7.64533 64.22,-12.89333 13.54533,-3.352 27.00666,-7.03467 40.74399,-10.63067 z M 379.62932,477.93601 c 0.40134,0.58667 0.80267,1.17333 1.204,1.76 0.16,-0.108 0.32,-0.21467 0.48,-0.32267 -0.35466,-0.74133 -0.70933,-1.484 -1.064,-2.22666 -2.02666,-4.07067 -4.05466,-8.14267 -6.08266,-12.216 0.77733,-0.10267 1.104,0.0733 1.268,0.34533 4.02133,6.68533 8.47866,13.15467 11.93733,20.12 6.70667,13.5 16.04933,23.72 31.09333,27.70133 7.03734,1.86267 14.14667,3.47067 21.12934,5.516 13.90133,4.072 28.12266,5.756 42.53333,5.95734 12.66266,0.17733 25.33066,0.0293 37.996,0.0253 4.172,-0.001 8.34266,0 12.28133,0 -1.512,-2.02 -3.316,-4.32533 -4.96667,-6.73467 -0.32,-0.46666 -0.0467,-1.34133 -0.0453,-2.028 0.684,0.0267 1.48533,-0.164 2.02667,0.12934 0.91066,0.48933 1.68533,1.252 2.464,1.95866 4.69066,4.25867 9.16533,8.78 14.08266,12.756 13.876,11.21867 27.89867,22.25734 41.92934,33.284 9.19466,7.22533 18.21466,14.72533 27.82666,21.356 19.73467,13.61467 40.10533,26.32133 59.664,40.17467 16.58533,11.74933 34.04667,21.632 52.67467,29.66666 7.35866,3.17334 14.57466,6.848 21.39866,11.036 5.95867,3.65867 12.072,6.51334 18.80133,8.33867 6.18534,1.67867 12.13467,3.93067 17.61467,7.51333 5.34667,3.496 10.88933,6.94267 16.79067,9.29867 15.18266,6.05867 30.504,11.69733 46.91466,13.92533 9.54934,1.296 18.89067,4.828 28.628,4.01467 11.152,-0.932 22.24,-2.70134 33.32933,-4.28667 6.588,-0.94133 12.68934,-3.04133 18.09467,-7.304 3.10533,-2.44933 7.032,-3.86266 10.604,-5.712 4.084,-2.11466 8.36,-3.92133 12.21867,-6.38266 2.60133,-1.66 4.72,-4.132 6.87733,-6.40934 1.47067,-1.55333 0.91467,-3.05866 -0.95867,-3.86533 -2.36,-1.016 -4.744,-2.06 -7.216,-2.71867 -32.57466,-8.66933 -63.49066,-21.31866 -92.31866,-38.82 -18.38,-11.15733 -36.396,-22.916 -54.80667,-34.01866 -24.71733,-14.90667 -49.588,-29.56267 -74.53066,-44.088 -16.56667,-9.648 -33.108,-19.40667 -50.17067,-28.11467 -11.80266,-6.024 -24.29333,-10.86666 -36.82266,-15.248 -9.77067,-3.41466 -20.08,-5.29066 -30.13734,-7.904 -0.96133,-0.25066 -1.82666,-0.87733 -2.73733,-1.32933 0.11867,-0.27067 0.236,-0.54133 0.35467,-0.812 0.55466,-0.048 1.12933,-0.21867 1.66,-0.12667 7.14533,1.23467 14.43466,1.96 21.392,3.88267 13.44,3.71467 26.748,7.93467 40.008,12.26267 23.07466,7.52933 46.98533,11.148 70.74666,15.49866 2.988,0.54667 5.99333,1.008 8.99067,1.508 -0.0347,0.34534 -0.068,0.692 -0.10134,1.03867 -4.78266,-0.26533 -9.57866,-0.38267 -14.344,-0.84 -4.948,-0.47467 -9.87199,-1.22933 -14.79466,-1.95067 -4.68533,-0.68666 -9.35467,-1.492 -14.032,-2.244 -0.0547,0.32267 -0.108,0.64534 -0.16267,0.96934 17.13334,3.472 34.26667,6.94266 51.4,10.41466 -16.67333,0.38134 -32.73866,-3.86666 -49.156,-6.14533 4.08534,2.37733 8.20267,4.83733 12.64267,5.76533 16.3,3.40934 32.70933,6.29734 49.07066,9.41467 2.08934,0.39867 4.14134,0.99333 6.21067,1.496 -0.076,0.35867 -0.15067,0.71467 -0.22533,1.07333 -16.57067,-2.652 -33.14,-5.304 -49.71067,-7.956 -0.08,0.288 -0.16,0.576 -0.24,0.86267 3.82534,1.88 7.46933,4.49467 11.512,5.49467 10.236,2.53333 20.64267,4.392 30.99867,6.42133 6.64266,1.30267 13.31866,2.428 19.97866,3.63467 -0.0387,0.27733 -0.0787,0.556 -0.11733,0.83333 -15.08267,-1.32 -29.96533,-4.22133 -44.96,-6.47067 4.18933,2.84267 8.54667,5.264 12.67733,8.024 4.86667,3.248 9.75467,4.87867 15.93067,4.852 11.96933,-0.0507 23.936,1.55333 35.92,2.04667 11.01867,0.456 22.05867,0.39066 33.08933,0.48533 7.616,0.0653 15.23334,0.012 22.412,0.012 0.31467,-0.29467 0.14267,0.0147 -0.0667,0.0413 -28.89866,3.73467 -57.98933,3.93067 -87.28399,4.86134 2.35733,1.54 4.592,3.11866 6.94933,4.48666 1.176,0.68267 2.56667,1.364 3.876,1.392 9.88133,0.21734 19.76933,0.42267 29.65333,0.332 10.34667,-0.0947 20.69334,-0.496 31.03734,-0.81733 3.91333,-0.12267 7.82133,-0.396 11.732,-0.60133 0.0147,0.32266 0.0307,0.644 0.0453,0.968 -22.592,3.276 -45.27067,5.25466 -68.23733,3.73866 2.54666,2.07067 5.11466,3.86134 7.748,5.548 0.59333,0.38267 1.416,0.564 2.136,0.56667 7.67733,0.0387 15.37066,0.32133 23.02933,-0.0587 9.45333,-0.46933 18.88533,-1.42133 28.31067,-2.32533 5.88666,-0.564 11.73999,-1.444 17.61466,-2.14267 3.81733,-0.45466 7.64267,-0.84 12.19867,-1.336 -0.91867,0.69067 -1.18534,1.06 -1.49867,1.104 -24.91733,3.488 -49.624,8.97467 -75.02133,7.94134 -0.248,-0.005 -0.496,-0.009 -0.744,-0.0147 0.12533,0.148 0.24933,0.29733 0.37467,0.444 1.672,1.252 3.44666,2.38933 4.99333,3.77867 2.29867,2.06666 4.84133,2.588 7.89867,2.43333 12.90933,-0.64533 25.804,-1.35067 38.504,-3.952 15.78266,-3.23067 31.55199,-6.52667 47.33199,-9.76933 0.332,-0.0667 0.73067,0.18533 1.1,0.288 -14.05733,5.01066 -28.456,7.972 -42.91199,10.788 -14.652,2.85466 -29.35067,5.08133 -44.35334,5.27733 3.252,2.50267 6.49867,4.71733 9.776,6.884 0.53334,0.35333 1.23334,0.752 1.812,0.69333 7.23334,-0.74133 14.56534,-1.04 21.66667,-2.46533 16.84533,-3.38267 33.57866,-7.312 50.36266,-11 0.56267,-0.124 1.17734,-0.016 1.76667,-0.016 0.0467,0.288 0.092,0.57733 0.13867,0.86667 -22.99334,6.48533 -45.812,13.732 -70.136,15.18533 8.496,6.732 9.42533,6.95333 19.14133,4.69733 0.37334,-0.0867 0.756,-0.12266 1.132,-0.192 21.79333,-3.95066 43.04933,-9.70666 63.33333,-18.756 3.44667,-1.53733 6.972,-2.89866 10.46134,-4.34133 -5.476,4.70133 -47.76934,22.12267 -79.72667,27.576 3.73334,2.13867 7.14534,3.988 10.43734,6.032 1.40133,0.87067 2.488,0.75333 3.932,0.13067 5.71733,-2.468 11.42399,-4.99467 17.27466,-7.11467 54.19333,-19.64267 105.30267,-45.712 154.32802,-75.70533 44.8907,-27.46133 86.9973,-58.92133 126.796,-93.43067 17.1827,-14.9 34.804,-29.29733 52.3547,-43.76799 13.56,-11.18134 27.7893,-21.42267 43.5466,-29.376 0.2507,-0.12667 0.4347,-0.38267 1.0627,-0.952 -2.1693,0.296 -3.7733,0.55333 -5.3867,0.72266 -1.4146,0.148 -2.84,0.19734 -4.4413,0.30267 7.616,-8.54933 16.556,-14.53733 25.688,-20.37733 8.936,-5.71467 17.4907,-12.02534 26.212,-18.07467 l 0.14,0.24667 c -12.6493,10.412 -25.2987,20.824 -38.3667,31.58 1.0587,0 1.4507,0.0653 1.8147,-0.009 12.132,-2.484 24.2187,-1.148 35.9187,1.85467 12.2026,3.13333 24.1546,7.368 36.0133,11.68667 16.2667,5.928 32.3733,12.13333 49.6,14.97466 30.8133,5.08 61.3333,4.91734 91.5467,-3.76533 7.32,-2.104 14.6133,-4.30133 21.7333,-8.69067 -8.9867,-1.06533 -16.0533,-4.92266 -22.1067,-10.65333 -11.7066,-11.09067 -23.2933,-22.30533 -34.9733,-33.408 -7.64,-7.25733 -15.1333,-14.69867 -23.1333,-21.54267 -13.24,-11.32933 -29.1867,-17.93333 -45.1467,-24.95866 1.76,-1.34667 0.36,-1.95867 -0.84,-2.316 -3.8,-1.13467 -7.6267,-2.21867 -11.4933,-3.14533 -2.3067,-0.55467 -4.7067,-0.77867 -7.0534,-1.152 0.053,-0.35467 0.1067,-0.708 0.16,-1.064 6.72,0.76133 13.4534,1.524 20.1734,2.284 0.093,-0.36534 0.2,-0.73334 0.2933,-1.1 -6.4,-2.104 -12.8,-4.208 -19.2,-6.31467 0.08,-0.30667 0.16,-0.61467 0.24,-0.92267 6.6533,1.43067 13.3067,2.864 19.96,4.29467 0.08,-0.14667 0.1733,-0.292 0.2667,-0.43733 -3.84,-2.684 -7.6667,-5.368 -12.2,-8.532 5.64,1.00266 9.3466,4.16266 13.5733,6.632 0.04,-0.54267 0.1333,-0.9 0.1067,-1.248 -0.12,-1.62134 -0.2,-3.25067 -0.4,-4.86 -1.3067,-9.90667 -6.1867,-18.35734 -10.9334,-26.872 -4.1866,-7.53067 -8.64,-14.94 -12.4133,-22.67334 -5.68,-11.62933 -7.1467,-23.77066 -2.7067,-36.244 0.72,-1.99866 1.5334,-3.96 2.4934,-6.42933 -13.08,5.63333 -24.36,13.052 -34.3427,22.23733 -15.868,14.60134 -28.2027,31.90934 -36.0893,51.97734 -6.2214,15.82666 -11.332,32.088 -17.0174,48.39199 14.4587,-1.74 28.88,-3.47466 43.3014,-5.208 0.043,0.28134 0.085,0.56134 0.128,0.844 -4.6654,1.01867 -9.292,2.29467 -14.0027,3.00667 -13.8613,2.09733 -27.7547,3.98267 -41.6387,5.92667 -6.7293,0.94133 -13.4853,1.71333 -20.1973,2.76533 -16.0973,2.524 -32.152,5.376 -47.708,10.30533 -23.5707,7.46934 -46.9853,15.432 -70.568,22.86267 -37.2507,11.73733 -74.5747,23.29867 -113.1947,29.80133 -15.67199,2.63867 -31.41732,5.288 -47.23999,6.48 -15.08533,1.136 -30.32933,0.83467 -45.47733,0.35067 -19.56667,-0.624 -39.14533,-1.596 -58.64933,-3.252 -26.572,-2.25467 -53.04267,-5.71733 -79.62,-7.884 -24.96933,-2.03733 -50.01733,-3.13067 -75.03866,-4.51333 -18.02134,-0.99467 -36.048,-2.06267 -54.08667,-2.57867 -15.44667,-0.444 -30.93733,-0.672 -46.36933,-0.044 -18.11333,0.73733 -36.17867,2.59867 -54.276,3.78533 -9.96133,0.65334 -19.96267,0.69734 -29.91733,1.42134 -13.88934,1.008 -27.72667,1.94666 -41.69467,1.04533 -21.62,-1.39333 -42.536,-5.58667 -62.472,-14.12267 -12.6,-5.39466 -25.588,-8.35466 -39.15866,-5.51333 -9.624,2.01467 -18.992,5.23067 -28.508,7.784 -4.50667,1.20933 -9.044,2.548 -13.65333,3.06933 -6.54934,0.74134 -13.17734,0.75467 -19.77067,1.128 -10.176,0.576 -20.20667,2.044 -30.04,4.812 -7.01867,1.97467 -14.048,2.59067 -21.272,0.61334 -5.856,-1.604 -11.93333,-2.19467 -17.93733,-0.77067 -4.92667,1.16933 -9.82134,2.556 -14.61067,4.196 -5.96933,2.04533 -11.96,2.89067 -18.064,1.06933 -8.26,-2.46666 -16.06,-1.48266 -23.64533,2.42934 -4.00667,2.06666 -8.24667,2.836 -12.816,2.21333 -5.03067,-0.684 -9.93067,0.16 -14.54533,2.36267 -5.23867,2.49866 -10.56667,4.30133 -16.556,4.09333 -5.6,-0.196 -11.0608,0.92533 -15.9452,3.93333 -3.00414,1.85067 -3.03134,5.404 0.0901,7.20934 4.79573,2.77466 9.55573,5.72666 14.6444,7.856 9.376,3.92533 18.796,7.94133 29.11067,8.84666 15.94266,1.39867 31.88933,2.74267 47.83199,4.14134 1.14134,0.10133 2.26,0.46933 3.38934,0.712 -0.0653,0.34933 -0.12934,0.69866 -0.19467,1.048 -25.736,1.96133 -50.79466,-2.616 -75.71733,-8.68934 12.04667,7.20934 24.97733,11.09867 38.97067,11.33067 11.99733,0.2 24.00266,0.26267 35.98666,0.79333 9.67733,0.42934 19.316,1.82534 28.99467,2.144 12.556,0.41467 25.13466,0.35734 37.7,0.18134 11.24133,-0.156 22.14933,1.59466 32.948,4.50399 17.58799,4.73734 34.33866,11.28 47.55599,24.30267 5.62267,5.54 10.17334,12.16667 15.212,18.3 z m 6.22,34.48267 c 0.776,0.33333 1.56267,0.64266 2.32534,1.00266 7.51066,3.54534 14.83333,7.57334 22.56266,10.552 17.08267,6.584 34.90667,10.39334 53.12934,11.91067 9.25066,0.76933 18.59733,0.912 27.87999,0.63867 13.69867,-0.404 27.38,-1.42534 41.068,-2.2 2.71067,-0.15334 5.41467,-0.38534 8.84667,-0.63334 -1.64,-1.52933 -2.93867,-2.43066 -3.82533,-3.632 -1.736,-2.356 -3.89067,-2.86266 -6.72267,-2.684 -6.60667,0.42 -13.24933,0.83867 -19.856,0.62534 -16.86933,-0.544 -33.74267,-1.20667 -50.58666,-2.25867 -13.47467,-0.84267 -26.91467,-2.028 -40.16667,-5.088 -14.78667,-3.41333 -26.64533,-10.49067 -33.996,-24.148 -0.67867,-1.26 -1.28267,-2.62533 -2.22133,-3.67333 -5.84934,-6.54267 -12.29734,-12.39467 -20.024,-16.69867 -20.44267,-11.38933 -42.41733,-17.78133 -65.7,-19.34933 -22.22133,-1.49734 -44.47733,-2.48134 -66.72267,-3.62267 -11.408,-0.584 -22.82,-1.11867 -34.23733,-1.48933 -11.78133,-0.384 -23.572,-0.53734 -35.35733,-0.80934 -1.72533,-0.0387 -3.46533,-0.044 -5.16933,-0.276 -13.09334,-1.788 -26.1968,-3.508 -39.25774,-5.51066 -5.5052,-0.844 -11.01666,-2.25867 -14.988,-6.58267 -3.306262,-3.59867 -2.2704,-6.30666 2.5848,-7.58266 0.3688,-0.0973 0.76414,-0.092 1.13187,-0.19067 2.73907,-0.732 5.49053,-1.42267 8.20827,-2.23067 6.07653,-1.80133 12.13653,-3.664 18.11413,-5.47466 -0.13027,-0.076 -0.88493,-0.88 -1.41147,-0.752 -5.61413,1.36933 -11.21093,2.816 -16.77186,4.384 -3.6636,1.036 -7.19587,2.632 -10.9068,3.376 -3.6256,0.72533 -7.267202,2.82266 -7.679736,6.44799 -0.533333,4.69067 -0.803066,9.59067 -0.0396,14.212 1.289067,7.796 5.618796,14.47867 10.092796,20.79734 20.25574,28.60933 42.20867,55.80666 67.522,80.18933 21.36534,20.58 43.16,40.58933 69.784,54.392 11.75733,6.09466 23.632,11.968 35.52933,17.78933 18.8,9.196 37.43734,18.72533 57.59067,24.86933 19.89866,6.068 39.54533,12.976 59.49866,18.85467 17.356,5.11333 34.87067,9.80533 52.524,13.75467 16.28267,3.64266 32.78133,6.46133 49.296,8.87866 15.708,2.3 31.52933,3.964 47.35467,5.25467 15.7,1.28 31.43866,0.82533 47.18133,-0.284 22.09733,-1.55733 44.208,-2.776 66.10266,-6.42 22.39334,-3.72533 44.28134,-9.47867 65.91467,-16.23333 4.48267,-1.4 8.72267,-3.57467 13.63866,-5.628 -3.23333,-1.728 -5.87333,-2.77867 -8.08799,-4.40667 -3.296,-2.42133 -6.33467,-3.01733 -9.68667,-0.28133 -0.716,0.58533 -1.716,0.82266 -2.592,1.20933 -15.16267,6.70267 -31.45733,8.78133 -47.58533,11.42267 -7.45867,1.22133 -15.04934,1.62666 -22.56667,2.512 -6.91467,0.816 -13.79067,2.25866 -20.72267,2.58533 -17.828,0.84267 -35.67599,1.31333 -53.51999,1.748 -9.564,0.232 -19.13867,0.21733 -28.70534,0.0627 -5.168,-0.0853 -10.336,-0.60934 -15.48933,-1.096 -10.208,-0.96134 -20.44667,-1.73467 -30.59733,-3.13067 -15.852,-2.18133 -31.65467,-4.72667 -47.452,-7.28 -24.056,-3.88667 -47.844,-9.07333 -71.20267,-16.01333 -21.276,-6.32 -41.8,-14.72534 -62.38266,-22.99467 -30.216,-12.14 -59.448,-26.13733 -87.108,-43.37333 -18.66,-11.62934 -36.948,-23.71067 -52.696,-39.244 -7.38133,-7.27867 -14.612,-14.76533 -22.51066,-21.45067 -15.668,-13.26 -26.92307,-30.088 -38.81467,-46.428 -1.5672,-2.15333 -2.60533,-4.692 -3.88813,-7.05066 1.0136,-0.0733 1.5756,0.2 1.93706,0.63866 3.89374,4.732 7.65,9.58134 11.64894,14.22134 8.39013,9.73866 16.6288,19.62933 25.45013,28.96533 7.63733,8.08267 16.296,15.19733 23.97467,23.244 22.36933,23.44133 49.07999,40.90133 77.10933,56.55866 21.02133,11.74267 43.00266,21.45467 65.23733,30.68667 31.1,12.912 62.864,23.64133 95.912,30.19733 24.252,4.812 48.6,9.176 72.98133,13.288 12.072,2.03734 24.28,3.54667 36.48933,4.40667 14.83333,1.04267 29.72933,1.31333 44.604,1.612 13.91733,0.27867 27.87467,0.76267 41.756,0.0387 13.364,-0.696 26.63733,-2.98934 39.97733,-4.284 18.25467,-1.77067 36.224,-5.11334 54.01467,-9.42 6.008,-1.45467 11.808,-3.76534 18.31333,-5.884 -6.14,-3.708 -11.51333,-7.01067 -16.968,-10.176 -0.648,-0.37734 -1.78267,-0.19334 -2.60267,0.044 -3.84933,1.11466 -7.59333,2.76133 -11.51066,3.448 -15.464,2.71066 -30.968,5.2 -46.47734,7.644 -18.03733,2.84 -36.208,4.188 -54.45999,4.48933 -3.07067,0.0507 -6.14267,0.056 -9.20934,0.18533 -9.096,0.38934 -18.20666,1.42 -27.27866,1.14134 -26.96,-0.828 -53.812,-3.096 -80.52534,-7.01067 -29.63599,-4.34133 -58.91066,-10.10533 -87.58533,-18.98667 -33.24533,-10.29733 -65.72933,-22.49066 -97.12133,-37.468 -31.79466,-15.16933 -61.58266,-33.816 -90.65599,-53.62533 -13.64,-9.292 -26.06267,-20.04666 -36.50534,-32.804 -6.53066,-7.97866 -12.13066,-16.73066 -17.956,-25.26666 -1.30133,-1.908 -1.79733,-4.36534 -2.66533,-6.56934 0.3,-0.14666 0.6,-0.296 0.9,-0.44266 3.35333,4.23866 6.81467,8.39733 10.04267,12.728 10.29733,13.812 21.268,27.03866 34.78266,37.83733 27.69733,22.132 57.61333,40.93733 88.81333,57.66933 28.208,15.12533 57.81067,27.02133 88.49733,36.128 20.764,6.16267 41.44667,12.75467 62.5,17.744 22.648,5.36667 45.69733,9.06533 68.912,11.296 13.82533,1.328 27.67733,3.03067 41.53467,3.22267 38.69866,0.53466 77.38666,-0.28534 115.79199,-5.72534 15.712,-2.22533 31.31067,-5.24133 46.96134,-7.896 10e-4,-0.35333 0.003,-0.704 0.004,-1.056 -5.11467,-2.74 -10.212,-5.512 -15.368,-8.17333 -0.58267,-0.3 -1.50267,-0.036 -2.248,0.0827 -6.9,1.092 -13.75867,2.64133 -20.7,3.236 -16.62667,1.42666 -33.28134,2.63466 -49.94534,3.50666 -18.49999,0.968 -37.02133,1.55467 -55.53866,2.14534 -21.316,0.67866 -42.62267,0.51333 -63.816,-2.22 -16.43467,-2.12134 -32.85066,-4.41067 -49.252,-6.77467 -17.77466,-2.56 -35.476,-5.55733 -52.55333,-11.32933 -18.64933,-6.30267 -37.316,-12.568 -55.84933,-19.19867 -10.52667,-3.76533 -21.03333,-7.74267 -31.14533,-12.48133 -21.95334,-10.288 -42.59467,-22.94 -62.96667,-36.048 -15.92,-10.24133 -31.664,-20.72667 -45.01066,-34.26 -5.152,-5.22267 -9.99067,-10.95867 -13.924,-17.128 -5.74534,-9.01333 -10.548,-18.628 -15.74134,-27.99467 -0.46266,-0.83466 -0.83866,-1.71866 -1.25466,-2.57866 1.13466,0.0933 1.79066,0.48133 2.21866,1.04133 3.608,4.70667 7.77867,9.10933 10.64534,14.236 10.192,18.23733 23.47866,33.724 40.54666,45.668 17.64933,12.348 35.52133,24.424 53.79067,35.828 11.48666,7.17066 23.43333,14.00533 35.96266,19.02266 26.85333,10.75734 54.19067,20.31467 81.38267,30.21734 19.52266,7.10933 39.928,10.18 60.44533,12.604 11.612,1.37066 23.228,2.73866 34.86666,3.87466 14.02267,1.36667 28.048,3.02134 42.112,3.56267 13.60134,0.52133 27.27067,0.18667 40.876,-0.47467 30.66667,-1.49333 61.31733,-3.344 91.96267,-5.23866 6.40666,-0.396 12.76266,-1.608 19.56133,-2.5 -5.53067,-3.46534 -10.624,-6.69867 -15.78133,-9.82667 -0.59334,-0.36133 -1.56534,-0.29733 -2.31734,-0.16933 -4.144,0.704 -8.24533,1.81333 -12.41466,2.18666 -13.856,1.24134 -27.73067,2.288 -41.60534,3.296 -12.82533,0.93067 -25.65199,2.24 -38.49199,2.43467 -17.07867,0.26133 -34.176,-0.18 -51.25067,-0.736 -10.25333,-0.33333 -20.51467,-1.148 -30.71067,-2.29867 -17.61333,-1.98933 -35.19333,-4.28933 -52.75733,-6.67866 -17.96933,-2.44534 -35.77733,-5.81867 -53.104,-11.26 -21.49066,-6.74934 -42.38133,-15.06934 -62.77466,-24.64134 -16.18133,-7.59466 -32.588,-14.672 -47.69733,-24.43733 -13.91467,-8.99333 -26.53334,-19.536 -39.088,-30.24133 -11.76,-10.02667 -23.89467,-19.66 -32.85467,-32.46933 -4.53333,-6.48267 -8.76266,-13.17867 -13.04533,-19.83067 -0.548,-0.85067 -0.58133,-2.03067 -1.01067,-3.65067 0.78,0.572 0.984,0.65067 1.072,0.796 7.42534,12.36534 16.35867,23.62534 26.528,33.756 8.88933,8.85334 18.528,16.97067 28.008,25.21467 15.83467,13.768 33.16267,25.49867 52.08133,34.464 19.58267,9.28133 39.61867,17.64533 59.66533,25.9 17.64,7.264 35.69067,13.692 54.516,16.98 23.20934,4.05466 46.54134,7.57866 69.93867,10.33466 17.216,2.02934 34.60666,2.81334 51.94666,3.49467 16.01334,0.628 32.09334,1.08 48.08667,0.356 22.70933,-1.028 45.368,-3.192 68.04666,-4.904 4.44,-0.336 8.86934,-0.82 14.18667,-1.31867 -5.75733,-3.724 -10.78533,-6.988 -15.83733,-10.21333 -0.35467,-0.22533 -0.90667,-0.272 -1.344,-0.21867 -5.88,0.72 -11.73734,1.74534 -17.63867,2.164 -17.21733,1.21734 -34.44133,2.852 -51.68133,3.11334 -26.76533,0.40533 -53.59867,1.664 -80.28933,-1.51467 -18.744,-2.232 -37.52667,-4.42667 -56.11067,-7.67333 -40.312,-7.04267 -78.99466,-19.564 -116.05733,-36.888 -25.564,-11.94933 -48.86666,-27.524 -70.20266,-45.94267 -15.69067,-13.54266 -28.70134,-29.23866 -36.62267,-48.684 -0.24533,-0.60533 -0.384,-1.25466 -0.572,-1.884 0.26133,-0.14266 0.52133,-0.28666 0.78133,-0.43066 1.56934,2.088 3.14667,4.16933 4.70534,6.26533 6.284,8.45867 12.06266,17.35067 18.92933,25.308 24.56933,28.46667 54.956,49.05867 89.00533,64.61333 25.90667,11.83467 52.81733,20.61733 80.42133,27.45467 18.34534,4.54266 36.916,7.79333 55.668,10.03466 18.76933,2.24534 37.54267,4.51334 56.48667,4.656 12.768,0.096 25.53733,0.12 38.30533,0.208 10.74667,0.072 21.51067,0.63334 32.23333,0.17467 13.696,-0.584 27.35733,-1.972 41.032,-3.02533 2.69867,-0.20667 5.39333,-0.46534 8.53067,-0.73734 -5.784,-3.98 -11.144,-7.68666 -16.53334,-11.34933 -0.504,-0.34133 -1.204,-0.60533 -1.79333,-0.572 -8.62,0.46533 -17.23467,1.052 -25.856,1.48533 -18.304,0.91867 -36.604,2.09734 -54.92133,2.56 -23.04667,0.58134 -46.00933,-0.52133 -68.91867,-3.716 -19.95999,-2.784 -39.83733,-5.85333 -59.12666,-11.68 -30.096,-9.09333 -59.356,-20.37199 -87.552,-34.40933 -17.02133,-8.47466 -33.26533,-17.89733 -47.3,-30.93466 -10.79333,-10.02534 -19.79866,-21.296 -26.44133,-34.432 -0.788,-1.55734 -1.25067,-3.27867 -1.86533,-4.924 0.252,-0.10934 0.504,-0.21867 0.756,-0.32934 0.38,0.48267 0.79333,0.944 1.13333,1.45067 15.97333,23.88267 34.24267,45.41733 60.232,59.12267 17.31333,9.132 34.39066,18.73866 52.98133,25.19733 26.99333,9.37866 54.02267,18.65466 82.54933,22.32266 21.86534,2.81067 43.55333,6.92 65.63467,8.192 15.48133,0.892 30.88666,0.50134 46.31333,-0.54666 13.30667,-0.904 26.60667,-1.95067 39.924,-2.68267 6.06266,-0.33333 12.15733,-0.056 18.79333,-0.056 -5.676,-4.27733 -10.95867,-8.05067 -15.99333,-12.13067 -2.76933,-2.24533 -5.08,-3.23333 -9.04667,-2.42533 -8.40533,1.712 -17.03866,2.54267 -25.61866,3.112 -16.55334,1.09867 -33.12667,2.08667 -49.70667,2.48133 -9.08267,0.216 -18.20933,-0.71333 -27.29467,-1.41066 -16.25333,-1.24667 -32.65866,-1.68 -48.69733,-4.3 -30.03866,-4.91067 -58.65733,-14.35467 -84.69866,-30.704 -23.10267,-14.50533 -44.98533,-30.44933 -62.932,-51.244 -0.65333,-0.756 -1.09867,-1.692 -1.64133,-2.544 5.676,4.66533 10.80266,9.71333 16.04533,14.63733 5.30933,4.98534 10.40533,10.27734 16.16533,14.692 19.596,15.016 40.98267,27.00267 64.03733,35.86134 21.08134,8.10266 42.68934,14.27999 65.32667,16.19866 18.06666,1.532 36.11066,3.60667 54.20933,4.38533 22.71733,0.976 45.48133,0.87867 68.11067,-2.15066 5.812,-0.77867 11.62133,-1.568 18.22666,-2.45867 -6.648,-4.632 -11.24533,-10.23466 -20.308,-8.152 -8.96266,2.06133 -18.48133,1.88133 -27.77333,2.29867 -16.78533,0.752 -33.58267,1.71333 -50.37333,1.68 -20.92667,-0.0427 -41.70267,-2.38934 -62.23467,-6.596 -24.22933,-4.96133 -47.08133,-13.46 -67.40933,-27.712 -9.608,-6.73733 -18.488,-14.516 -27.61067,-21.93067 -2.03466,-1.65333 -3.69733,-3.76266 -5.53199,-5.66266 0.18666,-0.18 0.37333,-0.36 0.56,-0.53867 0.24133,0.0973 0.528,0.14 0.71733,0.29867 6.21866,5.24 12.42266,10.49333 18.636,15.74 24.89066,21.01333 54.144,32.02533 85.84266,37.50533 17.944,3.10267 36.11467,3.684 54.2,3.688 24.55867,0.005 49.11867,-1.41067 73.67733,-2.23067 3.48534,-0.11733 6.96934,-0.316 11.028,-0.50266 -3.124,-2.26267 -5.90266,-3.988 -8.33733,-6.10667 -3.67333,-3.19733 -7.25733,-4.33333 -12.51467,-3.696 -10.91866,1.32133 -22.00933,1.37733 -33.03733,1.584 -12.95467,0.24133 -25.964,-0.6 -38.864,0.27067 -20.80666,1.40133 -40.596,-2.91467 -60.02933,-9.27067 -14.34267,-4.69067 -27.2,-12.67067 -40.17467,-20.26 -6.148,-3.59467 -11.90266,-7.684 -16.45733,-13.248 -0.54267,-0.66267 -0.892,-1.48533 -1.62,-2.72667 7.24133,4.944 13.84133,9.59734 20.58933,14.02267 12.1,7.93467 24.376,15.768 38.644,19.10133 13.396,3.128 26.984,5.488 40.54534,7.852 12.53999,2.18534 25.24933,2.08267 37.91066,1.484 15.81067,-0.74666 31.60133,-1.892 47.40267,-2.82533 2.14,-0.12533 4.29466,-0.0173 7.16,-0.0173 -3.972,-3.568 -7.26134,-6.59734 -10.66,-9.496 -0.50534,-0.432 -1.54934,-0.40934 -2.31334,-0.32934 -4.18666,0.448 -8.36,1.36267 -12.54533,1.408 -11.712,0.12934 -23.42933,-0.296 -35.14133,-0.124 -19.20134,0.28134 -38.296,-0.53733 -57.25467,-3.87066 -19.38,-3.40667 -36.73866,-11.52934 -53.06666,-22.17334 0.20533,-0.13466 0.40933,-0.27066 0.61466,-0.40666 z M 1511.1466,389.26935 c -4.0666,2.45733 -8.24,4.73866 -12.16,7.40666 -12.5466,8.53734 -26.8533,12.07067 -41.4933,14.37867 -31.0933,4.90667 -61.6,1.66267 -91.4133,-7.984 -11.8934,-3.84667 -23.36,-9.03333 -35.264,-12.80267 -13.9427,-4.41066 -27.772,-9.368 -42.4707,-11.09733 -6.1827,-0.72667 -12.2373,-0.61867 -18.3173,0.33467 -1.156,0.18266 -2.2614,0.94 -3.304,1.57466 -21.4427,13.03867 -41.0867,28.35334 -60.14,44.73334 -34.3947,29.57333 -68.8147,59.19466 -106.7107,84.42133 -12.0413,8.016 -22.928,17.792 -35.104,25.56933 -47.2827,30.20133 -95.84132,58.16133 -147.65732,80.01733 -15.35734,6.47867 -31.03734,12.19333 -46.568,18.26133 -0.44,0.172 -0.86267,0.388 -1.82934,0.82667 5.42134,2.672 10.32534,5.46 15.50534,7.57733 17.90133,7.31467 35.86133,14.48934 53.888,21.488 4.04133,1.56934 8.48533,2.07467 12.67333,3.308 3.38533,0.99734 6.712,2.24 9.98133,3.57734 4.44134,1.81733 6.268,6.71333 3.796,10.84666 -1.49866,2.50534 -3.52933,4.79734 -5.69066,6.78267 -6.788,6.23867 -14.82667,10.47467 -23.244,14.12 -13.26667,5.74666 -27.052,9.49733 -41.32267,11.75066 -10.84533,1.712 -21.41067,0.87334 -31.84533,-2.284 -6.09467,-1.84533 -12.27733,-3.268 -18.66533,-2.61333 -9.936,1.01733 -18.396,-2.70533 -26.56667,-7.652 -2.69733,-1.632 -5.404,-3.28266 -8.244,-4.63333 -1.68533,-0.80267 -3.65733,-1.51333 -5.46933,-1.44533 -8.32,0.304 -14.728,-3.552 -20.59067,-8.832 -1.492,-1.34534 -2.908,-2.86667 -4.62,-3.85467 -3.92,-2.26 -7.34533,-2.97867 -12.272,-0.56933 -9.20933,4.50533 -19.08667,7.90533 -28.99333,10.67733 -25.316,7.08266 -50.99867,12.64266 -77.28133,14.59733 -22.2,1.652 -44.448,2.64133 -66.66533,4.064 -16.71867,1.07067 -33.40667,0.67067 -50.06934,-0.74667 -29.08,-2.47466 -57.96533,-6.32666 -86.38933,-13.11466 -28.164,-6.72667 -56.42266,-13.112 -84.41333,-20.49867 -34.368,-9.06933 -65.77466,-24.99733 -95.868,-43.624 -6.324,-3.91333 -12.736,-7.71333 -18.828,-11.96666 -24.98266,-17.43467 -50.86,-33.62667 -74.32933,-53.17067 C 165.652,554.08668 149.92,537.71068 135.58933,519.97068 c -8.4904,-10.512 -17.23773,-20.83067 -25.41693,-31.57867 -7.388,-9.70933 -13.547869,-20.22267 -17.493202,-31.87867 -2.355734,-6.95733 -2.7104,-14.04133 -1.281334,-21.23733 0.836,-4.21066 6.600534,-8.99466 11.954796,-9.99466 6.93947,-1.296 13.85614,-2.71067 20.788,-4.04667 1.82547,-0.35333 3.66974,-0.60667 5.42654,-0.892 -3.4036,-3.95467 -7.00987,-7.57467 -9.89067,-11.7 -1.79533,-2.56933 -2.96507,-5.81067 -3.58013,-8.916 -1.05374,-5.31733 0.49053,-6.99067 5.49213,-8.51333 11.50213,-3.50134 23.2528,-6.19334 34.9248,-9.124 1.55333,-0.39067 3.24133,-0.36267 4.86533,-0.33734 5.43334,0.0853 10.77467,-0.57733 15.756,-2.73866 8.36534,-3.63067 17.084,-3.89867 25.976,-3.51334 7.968,0.34534 15.89333,0.16667 23.54267,-2.71866 5.768,-2.17467 11.77333,-1.8 17.87466,-1.68134 10.91867,0.21067 21.86,-0.44533 32.78134,-0.94533 1.82666,-0.0827 3.63466,-1.13733 5.39866,-1.868 5.876,-2.43467 12.008,-3.568 18.29867,-2.812 10.31067,1.24 20.35467,0.328 30.544,-1.672 7.984,-1.568 15.524,-4.24933 22.992,-7.076 13.96533,-5.28533 27.73066,-4.24933 41.732,-0.53733 17.70266,4.69066 35.41333,9.39066 53.25466,13.50266 6.28667,1.44667 12.98267,1.04667 19.46933,1.71067 13.55734,1.38933 27.04134,-0.0427 40.548,-0.81867 6.89467,-0.39333 13.79734,-0.60933 20.69467,-0.95733 21.84133,-1.108 43.67733,-3.06533 65.524,-3.17067 32.73466,-0.15733 65.48133,0.76667 98.21066,1.64 20.724,0.55334 41.44933,1.548 62.136,2.904 17.61733,1.15334 35.18267,3.08534 52.768,4.708 15.19333,1.40267 30.36667,3.08 45.58267,4.156 5.388,0.38267 10.876,-0.68 16.32133,-1.03466 11.25466,-0.73467 22.59866,-1.06534 33.40666,-4.68134 8.48134,-2.83733 16.75867,-6.27866 25.19467,-9.25866 3.41467,-1.20534 7,-1.93867 10.52533,-2.816 6.776,-1.68934 12.52,0.52533 17.456,5.02666 4.88534,4.45467 9.51067,9.19467 14.384,13.66267 0.73334,0.67333 2.24267,0.896 3.308,0.744 5.47734,-0.78133 10.92534,-1.75867 16.38534,-2.656 13.49332,-2.21867 27.12132,-3.83867 40.44802,-6.80533 14.9213,-3.32134 29.6253,-7.67467 44.3266,-11.91334 25.2987,-7.296 50.4494,-15.10933 75.8,-22.22266 21.9787,-6.168 44.044,-12.09734 66.2654,-17.29734 13.272,-3.10533 26.9266,-4.572 40.3893,-6.88666 1.288,-0.22134 2.944,-0.93867 3.5667,-1.95467 3.2346,-5.27467 6.816,-10.46933 9.1066,-16.16266 4.1054,-10.196 7.3027,-20.75467 11.0094,-31.11734 7.536,-21.06533 18.9826,-39.67866 35.416,-54.992 8.516,-7.936 17.9213,-14.78133 28.3346,-20.05066 3.52,-1.788 7.5334,-2.68267 11.3734,-3.77467 0.8,-0.22667 2.1333,0.22 2.7066,0.83467 0.3734,0.408 0.093,1.808 -0.32,2.52533 -5.7733,10.09067 -6.2533,20.71333 -2.1066,31.25333 5.5333,14.05734 11.7333,27.852 17.72,41.732 3.7066,8.584 7.8,17.052 9.08,26.42267 0.4933,3.628 0.08,7.37867 0.08,10.93333 5.1466,1.92 10.4533,3.78133 15.6533,5.86133 11.1733,4.45467 20.7867,11.252 28.5333,20.38267 8,9.42933 17.8134,16.83867 26.8134,25.15733 5.76,5.33734 11.5733,10.62534 17.32,15.99067 7.9333,7.41333 17.04,13.02 26.8666,17.48933 1.7867,0.81467 3.8934,0.91334 5.8267,1.46 1.8533,0.52934 3.6667,1.21067 5.4933,1.82534 0,0.576 0,1.152 0,1.728"
       style="fill:#1b1a1a;fill-opacity:1;fill-rule:nonzero;stroke:none;stroke-width:0.133333;opacity:0.25" />
    <path
       id="path7"
       d="m 904.55331,566.21201 c 35.708,-9.24267 71.944,-16.932 105.87729,-31.67733 33.7054,-14.644 68.736,-26.51467 100.056,-46.36 -62.6186,41.9 -131.61329,67.056 -205.93329,78.03733"
       style="fill:#1c1b1b;fill-opacity:1;fill-rule:nonzero;stroke:none;stroke-width:0.133333;opacity:0.25" />
    <path
       id="path8"
       d="m 413.91199,495.55068 c 0.424,0.10666 0.84933,0.21333 1.27333,0.32 0.56534,-1.34534 1.32934,-2.66 1.556,-4.06134 0.0573,-0.35466 -1.6,-0.98666 -2.82933,-1.70133 0,2.26133 0,3.852 0,5.44267 z m 16.892,0.57333 c -2.47733,-1.93733 -4.50933,-3.52533 -6.73467,-5.264 0,3.03733 0,5.41867 0,8.06267 2.14534,-0.892 4.12934,-1.716 6.73467,-2.79867 z m -18.76133,-8.96667 c 3.27066,0.20267 6.668,-0.0747 9.78,0.736 3.40666,0.88934 6.80533,2.336 9.156,5.332 1.284,1.63867 1.796,3.008 0.26933,5.00267 -5.52,7.20933 -13.73333,7.54 -20.73867,0.59867 -1.69733,-1.68267 -3.39066,-3.39334 -4.86,-5.26667 -0.50266,-0.64133 -0.724,-2.41867 -0.376,-2.65467 2.06134,-1.40533 4.32934,-2.51066 6.52667,-3.71733 l 0.24267,-0.0307"
       style="fill:#1b1919;fill-opacity:1;fill-rule:nonzero;stroke:none;stroke-width:0.133333;opacity:0.25" />
    <path
       id="path9"
       d="m 315.34133,431.12801 c -2.33867,-0.336 -4.70534,-0.54133 -7.012,-1.028 -11.29867,-2.38533 -22.744,-2.71733 -34.236,-2.77733 -12.54667,-0.064 -25.09334,-0.36133 -37.63734,-0.68133 -2.67066,-0.0667 -5.32666,-0.66667 -7.988,-1.02134 0.005,-0.25466 0.012,-0.50933 0.02,-0.76266 0.584,-0.15734 1.17067,-0.45334 1.75467,-0.44934 16.576,0.11334 33.164,-0.0693 49.724,0.51467 9.89733,0.348 19.75867,1.83867 29.62,2.96667 2.056,0.236 4.03467,1.13733 6.04933,1.732 -0.0973,0.50133 -0.196,1.004 -0.29466,1.50666"
       style="fill:#1f1e1e;fill-opacity:1;fill-rule:nonzero;stroke:none;stroke-width:0.133333;opacity:0.25" />
    <path
       id="path10"
       d="m 817.62798,628.87467 c -2.07333,-1.04533 -3.52533,-1.61733 -4.80933,-2.448 -13.85067,-8.96133 -27.552,-18.16266 -41.54667,-26.89466 -11.40667,-7.11467 -23.15733,-13.68134 -34.74933,-20.50134 -1.01467,-0.59733 -1.984,-1.26666 -2.97467,-1.90266 0.084,-0.25334 0.16933,-0.50534 0.25333,-0.76 0.70267,0.16933 1.416,0.308 2.10934,0.51066 8.91733,2.61334 16.568,7.70267 24.19466,12.71334 18.97067,12.46666 37.79334,25.15733 56.66667,37.77066 0.2,0.136 0.272,0.46267 0.856,1.512"
       style="fill:#1d1c1c;fill-opacity:1;fill-rule:nonzero;stroke:none;stroke-width:0.133333;opacity:0.25" />
    <path
       id="path11"
       d="m 1158.8093,433.83334 c -2.924,2.388 -5.5853,5.232 -8.816,7.084 -13.8067,7.91867 -27.7293,15.64 -41.7227,23.22267 -4.9746,2.696 -10.2706,4.79867 -15.4266,7.15867 -0.1174,0.0547 -0.3107,-0.0573 -0.772,-0.15867 11.3066,-6.148 22.5066,-12.01067 33.4813,-18.26933 11.056,-6.30267 21.8893,-12.99867 32.8187,-19.52267 0.1453,0.16133 0.292,0.32267 0.4373,0.48533"
       style="fill:#1c1b1b;fill-opacity:1;fill-rule:nonzero;stroke:none;stroke-width:0.133333;opacity:0.25" />
    <path
       id="path12"
       d="m 1140.1066,437.83468 c -22.192,13.26533 -44.9826,25.42533 -68.1173,36.956 -0.1227,-0.228 -0.2453,-0.456 -0.368,-0.684 22.6107,-12.492 45.2227,-24.984 67.8333,-37.47467 0.2174,0.4 0.4347,0.80133 0.652,1.20267"
       style="fill:#1d1b1c;fill-opacity:1;fill-rule:nonzero;stroke:none;stroke-width:0.133333;opacity:0.25" />
    <path
       id="path13"
       d="m 1218.832,388.75468 c -1.5307,1.85467 -2.808,4.01733 -4.636,5.50533 -7.0347,5.72934 -14.24,11.25067 -21.3974,16.828 -0.74,0.57867 -1.5826,1.024 -2.8146,1.24934 0.4973,-0.73067 0.8666,-1.608 1.5133,-2.168 8.252,-7.148 16.5387,-14.256 24.8387,-21.35067 0.4653,-0.39733 1.12,-0.572 1.6866,-0.85067 0.2694,0.26134 0.5387,0.524 0.8094,0.78667"
       style="fill:#1d1c1c;fill-opacity:1;fill-rule:nonzero;stroke:none;stroke-width:0.133333;opacity:0.25" />
    <path
       id="path14"
       d="m 986.09998,555.99334 c -5.13334,4.53867 -45.124,20.732 -49.024,19.87067 16.74666,-6.78667 32.88533,-13.32933 49.024,-19.87067"
       style="fill:#201e1e;fill-opacity:1;fill-rule:nonzero;stroke:none;stroke-width:0.133333;opacity:0.25" />
    <path
       id="path15"
       d="m 365.31866,453.27068 c -12.284,-9.80134 -26.372,-15.956 -41.38,-20.536 5.24,-3.14 38.49866,13.27066 41.38,20.536"
       style="fill:#1c1b1b;fill-opacity:1;fill-rule:nonzero;stroke:none;stroke-width:0.133333;opacity:0.25" />
    <path
       id="path16"
       d="m 1177.2146,413.50401 c 2.396,-3.656 28.8107,-23.69866 32.8934,-24.62533 -0.776,0.932 -1.4067,2.06267 -2.3534,2.768 -6.712,5.004 -13.464,9.956 -20.2546,14.85333 -3.14,2.26267 -6.396,4.364 -10.2854,7.004"
       style="fill:#1c1a1a;fill-opacity:1;fill-rule:nonzero;stroke:none;stroke-width:0.133333;opacity:0.25" />
    <path
       id="path17"
       d="m 1130.84,462.58934 c 8.5253,-6.32133 16.992,-12.6 26.0266,-19.30133 -1.264,4.76667 -21.068,18.944 -26.0266,19.30133"
       style="fill:#1d1b1c;fill-opacity:1;fill-rule:nonzero;stroke:none;stroke-width:0.133333;opacity:0.25" />
    <path
       id="path18"
       d="m 1387.2,318.61735 c -11.4934,2.70133 -22.9867,5.40266 -34.48,8.10266 10.96,-4.896 22.36,-7.97733 34.28,-8.90933 0.067,0.26933 0.1333,0.53867 0.2,0.80667"
       style="fill:#1e1d1d;fill-opacity:1;fill-rule:nonzero;stroke:none;stroke-width:0.133333;opacity:0.25" />
    <path
       id="path19"
       d="m 1377.68,327.96535 c -9.8534,2.76933 -19.32,5.428 -28.6267,8.03866 3.16,-3.428 24.5733,-9.78133 28.6267,-8.03866"
       style="fill:#1f1e1e;fill-opacity:1;fill-rule:nonzero;stroke:none;stroke-width:0.133333;opacity:0.25" />
    <path
       id="path20"
       d="m 1228.5786,385.47868 c 0.3214,1.452 0.74,2.17733 0.5334,2.59067 -2.8654,5.71466 -7.036,10.20133 -12.972,13 3.948,-4.948 7.8946,-9.89467 12.4386,-15.59067"
       style="fill:#1c1b1b;fill-opacity:1;fill-rule:nonzero;stroke:none;stroke-width:0.133333;opacity:0.25" />
    <path
       id="path21"
       d="m 803.13598,558.26268 c 8.91333,0 17.828,0 26.27733,0 -2.556,2.25066 -22.888,3.25866 -26.324,0.91066 0.016,-0.304 0.0307,-0.60666 0.0467,-0.91066"
       style="fill:#1a1919;fill-opacity:1;fill-rule:nonzero;stroke:none;stroke-width:0.133333;opacity:0.25" />
    <path
       id="path22"
       d="m 797.33865,549.12001 c 8.53066,0 17.06133,0 25.59333,0 -0.005,0.36 -0.0107,0.72267 -0.0147,1.08267 -8.57066,1.224 -17.11733,0.796 -25.57866,-1.08267"
       style="fill:#2d2b2b;fill-opacity:1;fill-rule:nonzero;stroke:none;stroke-width:0.133333;opacity:0.25" />
    <path
       id="path23"
       d="m 412.04266,487.15734 -0.24267,0.0307 c -0.61333,-0.51067 -1.228,-1.02133 -1.84933,-1.53733 2.916,-3.648 13.78266,-2.85467 16.788,1.328 -2.50134,-0.612 -4.81734,-1.57467 -7.16,-1.64267 -2.52667,-0.0747 -5.07867,0.68933 -7.61467,1.11867 -0.0133,0.001 0.0507,0.45866 0.0787,0.70266"
       style="fill:#232121;fill-opacity:1;fill-rule:nonzero;stroke:none;stroke-width:0.133333;opacity:0.25" />
    <path
       id="path24"
       d="m 819.61865,541.17068 c -5.708,1.68933 -21.08267,1.79333 -24.016,0 8.00533,0 16.01066,0 24.016,0"
       style="fill:#1c1a1a;fill-opacity:1;fill-rule:nonzero;stroke:none;stroke-width:0.133333;opacity:0.25" />
    <path
       id="path25"
       d="m 420.47199,507.00534 c -5.09467,0.94534 -11.616,-2.472 -12.168,-6.95066 4.20267,2.4 8.128,4.64266 12.168,6.95066"
       style="fill:#1d1b1b;fill-opacity:1;fill-rule:nonzero;stroke:none;stroke-width:0.133333;opacity:0.25" />
    <path
       id="path26"
       d="m 1364.0133,297.69468 c -4.16,2.44267 -15.44,3.16667 -17.88,1.43467 6.1333,-0.492 12.0133,-0.96267 17.88,-1.43467"
       style="fill:#201f1f;fill-opacity:1;fill-rule:nonzero;stroke:none;stroke-width:0.133333;opacity:0.25" />
    <path
       id="path27"
       d="m 949.15731,588.34534 c 5.196,-3.65067 10.96667,-6.284 16.66933,-9.03867 0.14267,0.252 0.284,0.50267 0.42534,0.75467 -5.52934,3.06 -11.05734,6.12133 -16.58667,9.18267 -0.16933,-0.3 -0.33867,-0.6 -0.508,-0.89867"
       style="fill:#252424;fill-opacity:1;fill-rule:nonzero;stroke:none;stroke-width:0.133333;opacity:0.25" />
    <path
       id="path28"
       d="m 1368.9733,337.85201 c -5.32,2.07067 -10.64,4.14134 -15.96,6.21334 -0.1467,-0.35334 -0.28,-0.70534 -0.4267,-1.05867 5.2934,-2.19733 10.6,-4.39333 15.8934,-6.58933 0.16,0.47866 0.32,0.956 0.4933,1.43466"
       style="fill:#201e1e;fill-opacity:1;fill-rule:nonzero;stroke:none;stroke-width:0.133333;opacity:0.25" />
    <path
       id="path29"
       d="m 851.44131,646.79467 c -4.88933,-1.68533 -9.59066,-3.708 -13.54,-7.076 0.17867,-0.324 0.356,-0.64666 0.53467,-0.96933 4.508,2.48933 9.01733,4.97867 13.52667,7.468 -0.17467,0.19333 -0.348,0.384 -0.52134,0.57733"
       style="fill:#1f1e1e;fill-opacity:1;fill-rule:nonzero;stroke:none;stroke-width:0.133333;opacity:0.25" />
    <path
       id="path30"
       d="m 1351.4,266.50535 c 3.48,-0.80933 12.48,3.924 13.2933,7.18533 -4.5067,-2.43466 -8.7867,-4.74666 -13.2933,-7.18533"
       style="fill:#1c1b1b;fill-opacity:1;fill-rule:nonzero;stroke:none;stroke-width:0.133333;opacity:0.25" />
    <path
       id="path31"
       d="m 1355.48,274.85735 c -3.24,-0.72133 -6.4667,-1.444 -9.92,-2.216 2.52,-1.39867 8.04,-0.36 9.92,2.216"
       style="fill:#1f1e1e;fill-opacity:1;fill-rule:nonzero;stroke:none;stroke-width:0.133333;opacity:0.25" />
    <path
       id="path32"
       d="m 1324.716,329.68268 c -3.7467,2.168 -6.7694,3.916 -9.792,5.66667 2.3626,-2.944 5.1746,-5.076 9.792,-5.66667"
       style="fill:#201e1e;fill-opacity:1;fill-rule:nonzero;stroke:none;stroke-width:0.133333;opacity:0.25" />
    <path
       id="path33"
       d="m 1343.92,293.89202 c -3.1867,0.32266 -6.3734,0.64533 -9.5734,0.96933 -0.04,-0.33733 -0.08,-0.67467 -0.1333,-1.012 3.2,-0.34267 6.4,-0.68533 9.6,-1.028 0.04,0.35733 0.08,0.71333 0.1067,1.07067"
       style="fill:#201f1f;fill-opacity:1;fill-rule:nonzero;stroke:none;stroke-width:0.133333;opacity:0.25" />
    <path
       id="path34"
       d="m 385.23466,512.82534 c -0.14134,-0.26 -0.284,-0.52133 -0.42534,-0.78266 0.34667,0.12533 0.692,0.25066 1.04,0.376 -0.20533,0.136 -0.40933,0.272 -0.61466,0.40666"
       style="fill:#1b1a1a;fill-opacity:1;fill-rule:nonzero;stroke:none;stroke-width:0.133333;opacity:0.25" />
    <path
       id="path35"
       d="m 264.86533,440.86801 c 0.19866,0.384 0.39866,0.76933 0.804,1.548 -2.84134,-0.876 -5.276,-1.624 -7.636,-2.35067 3.37866,-2.35333 7.38533,-2.16 10.66933,1.06134 -1.44667,-0.32 -2.352,-0.51734 -3.25733,-0.716 -0.536,-0.19867 -1.072,-0.39467 -1.60934,-0.592 -0.052,0.13733 -0.10533,0.27466 -0.15866,0.412 0.396,0.21333 0.792,0.42533 1.188,0.63733"
       style="fill:#201f1f;fill-opacity:1;fill-rule:nonzero;stroke:none;stroke-width:0.133333;opacity:0.25" />
    <path
       id="path36"
       d="m 249.47199,441.42801 c 3.80134,1.03733 7.604,2.07333 11.40667,3.10933 -0.12,0.43734 -0.23867,0.87467 -0.35733,1.312 -3.76667,-1.10266 -7.532,-2.20666 -11.29734,-3.30933 0.0827,-0.37067 0.16534,-0.74 0.248,-1.112"
       style="fill:#201f1f;fill-opacity:1;fill-rule:nonzero;stroke:none;stroke-width:0.133333;opacity:0.25" />
    <path
       id="path37"
       d="m 413.91199,495.55068 c 0,-1.59067 0,-3.18134 0,-5.44267 1.22933,0.71467 2.88667,1.34667 2.82933,1.70133 -0.22666,1.40134 -0.99066,2.716 -1.556,4.06134 -0.424,-0.10667 -0.84933,-0.21334 -1.27333,-0.32"
       style="fill:#e7e6e6;fill-opacity:1;fill-rule:nonzero;stroke:none;stroke-width:0.133333;opacity:0.25" />
  </g>
</svg>
